<svg xmlns="http://www.w3.org/2000/svg" xmlns:xlink="http://www.w3.org/1999/xlink" width="500" height="400" preserveAspectRatio="none" viewBox="0 0 500 400"><g mask="url(&quot;#a&quot;)" fill="none" stroke="#e2e8f0"><use xlink:href="#b" x="30" y="30"/><use xlink:href="#c" x="30" y="90"/><use xlink:href="#c" x="30" y="150"/><use xlink:href="#d" x="30" y="210"/><use xlink:href="#b" x="30" y="270"/><use xlink:href="#c" x="30" y="330"/><use xlink:href="#d" x="30" y="390"/><use xlink:href="#d" x="90" y="30"/><use xlink:href="#e" x="90" y="90"/><use xlink:href="#d" x="90" y="150"/><use xlink:href="#c" x="90" y="210"/><use xlink:href="#c" x="90" y="270"/><use xlink:href="#c" x="90" y="330"/><use xlink:href="#e" x="90" y="390"/><use xlink:href="#b" x="150" y="30"/><use xlink:href="#e" x="150" y="90"/><use xlink:href="#f" x="150" y="150" stroke-width="3"/><use xlink:href="#b" x="150" y="210"/><use xlink:href="#e" x="150" y="270"/><use xlink:href="#d" x="150" y="330"/><use xlink:href="#g" x="150" y="390"/><use xlink:href="#d" x="210" y="30"/><use xlink:href="#g" x="210" y="90"/><use xlink:href="#b" x="210" y="150"/><use xlink:href="#b" x="210" y="210"/><use xlink:href="#d" x="210" y="270"/><use xlink:href="#d" x="210" y="330"/><use xlink:href="#g" x="210" y="390"/><use xlink:href="#e" x="270" y="30"/><use xlink:href="#e" x="270" y="90"/><use xlink:href="#f" x="270" y="150" stroke-width="3"/><use xlink:href="#d" x="270" y="210"/><use xlink:href="#c" x="270" y="270"/><use xlink:href="#d" x="270" y="330"/><use xlink:href="#g" x="270" y="390"/><use xlink:href="#f" x="330" y="30" stroke-width="3"/><use xlink:href="#c" x="330" y="90"/><use xlink:href="#g" x="330" y="150"/><use xlink:href="#c" x="330" y="210"/><use xlink:href="#d" x="330" y="270"/><use xlink:href="#d" x="330" y="330"/><use xlink:href="#d" x="330" y="390"/><use xlink:href="#d" x="390" y="30"/><use xlink:href="#d" x="390" y="90"/><use xlink:href="#g" x="390" y="150"/><use xlink:href="#f" x="390" y="210" stroke-width="3"/><use xlink:href="#c" x="390" y="270"/><use xlink:href="#d" x="390" y="330"/><use xlink:href="#f" x="390" y="390" stroke-width="3"/><use xlink:href="#g" x="450" y="30"/><use xlink:href="#d" x="450" y="90"/><use xlink:href="#c" x="450" y="150"/><use xlink:href="#g" x="450" y="210"/><use xlink:href="#c" x="450" y="270"/><use xlink:href="#d" x="450" y="330"/><use xlink:href="#c" x="450" y="390"/><use xlink:href="#b" x="510" y="30"/><use xlink:href="#c" x="510" y="90"/><use xlink:href="#g" x="510" y="150"/><use xlink:href="#d" x="510" y="210"/><use xlink:href="#f" x="510" y="270" stroke-width="3"/><use xlink:href="#c" x="510" y="330"/><use xlink:href="#d" x="510" y="390"/></g><defs><path d="M-1 0a1 1 0 1 0 2 0 1 1 0 1 0-2 0" id="b"/><path d="M-3 0a3 3 0 1 0 6 0 3 3 0 1 0-6 0" id="g"/><path d="M-5 0A5 5 0 1 0 5 0 5 5 0 1 0-5 0" id="d"/><path d="m2-2-4 4z" id="e"/><path d="M6-6-6 6z" id="c"/><path d="m30-30-60 60z" id="f"/><mask id="a"><path fill="#fff" d="M0 0h500v400H0z"/></mask></defs></svg>
